<svg version="1.1" id="Layer_1" xmlns="http://www.w3.org/2000/svg" xmlns:xlink="http://www.w3.org/1999/xlink" x="0px" y="0px"
	 width="100%" viewBox="0 0 512 512" enable-background="new 0 0 512 512" xml:space="preserve">
<path fill="#000000" opacity="1.000000" stroke="none" 
	d="
M226.000000,513.000000 
	C151.034134,513.000000 76.068268,513.000000 1.051203,513.000000 
	C1.051203,342.445160 1.051203,171.890305 1.051203,1.000000 
	C74.354424,1.000000 147.709366,1.000000 221.843048,1.340458 
	C221.969574,2.113021 221.362106,2.821832 220.658417,2.935628 
	C210.470551,4.583177 200.945374,8.048746 191.741821,13.123997 
	C191.289398,13.365743 191.104065,13.662030 190.953552,13.974621 
	C190.988373,13.990926 190.954498,13.921906 190.587021,13.958828 
	C176.900223,21.514769 165.397293,31.059355 156.497528,43.947132 
	C152.496155,45.772614 148.836807,47.522148 145.221054,49.357563 
	C130.141998,57.011963 115.933174,66.005806 102.659447,77.051659 
	C91.249321,87.959076 79.384193,98.054787 69.236679,109.653259 
	C53.205120,127.977089 40.757893,148.780273 31.285879,171.303925 
	C19.004007,200.509171 11.528443,230.740463 12.075076,262.588165 
	C12.321506,276.945587 12.001336,291.524384 14.412613,305.578186 
	C17.276266,322.268585 22.803122,338.502045 27.195496,355.300903 
	C33.396793,368.096039 39.578499,380.523834 45.857956,393.309906 
	C46.632175,394.756042 47.319313,395.837402 47.983528,396.932648 
	C59.334682,415.649872 73.298279,432.261383 88.998077,447.431152 
	C92.237495,450.561218 96.051636,453.096436 99.825386,456.201080 
	C104.690437,460.033783 109.330971,463.571259 114.109734,467.422302 
	C120.128029,471.509613 126.008102,475.283295 132.052307,479.373718 
	C136.740875,482.065521 141.265305,484.440643 146.139450,486.944366 
	C155.320206,490.995789 164.151230,494.918640 173.365509,498.916260 
	C189.979767,504.908936 206.660324,508.942627 223.809723,511.079468 
	C224.607193,511.178833 225.272919,512.335632 226.000000,513.000000 
z"/>
<path fill="#000000" opacity="1.000000" stroke="none" 
	d="
M293.000000,1.000002 
	C366.299927,1.000000 439.599854,1.000000 512.949890,1.000000 
	C512.949890,171.555511 512.949890,342.111023 512.949890,513.000000 
	C438.312225,513.000000 363.623962,513.000000 288.247437,512.607788 
	C292.570862,511.148987 297.552338,509.905365 302.599304,509.046356 
	C325.627441,505.126709 347.422577,497.621674 368.441864,486.750732 
	C373.221924,484.139221 377.667328,481.596558 382.468811,479.019135 
	C388.558746,475.025818 394.292572,471.067291 400.382812,467.058716 
	C405.514160,463.369049 410.289032,459.729462 415.371033,455.953552 
	C419.325958,452.503510 423.237549,449.433685 426.570312,445.828705 
	C435.263916,436.425171 444.125458,427.123901 452.107178,417.132507 
	C458.131531,409.591309 462.900970,401.047607 468.515747,392.768738 
	C474.811218,380.036774 480.819916,367.486115 486.903076,354.557129 
	C495.211243,332.601044 500.231842,310.199829 501.730255,287.254456 
	C502.677155,272.755188 501.938324,258.056854 500.800018,243.538437 
	C499.887238,231.896881 497.822998,220.258148 495.230927,208.854279 
	C490.130768,186.416046 481.237274,165.388931 469.804077,145.419250 
	C459.779510,127.909981 447.794952,111.844795 433.722382,97.443336 
	C426.606964,90.161659 418.616943,83.734612 410.897461,76.599411 
	C408.176453,74.345627 405.583771,72.408997 402.983734,70.482292 
	C388.716949,59.910145 373.522217,50.939297 357.019531,43.634018 
	C351.199860,36.994976 346.209839,29.861500 339.741699,24.516878 
	C326.556305,13.621811 311.534729,5.914466 294.413391,2.914124 
	C293.847809,2.815011 293.466949,1.661836 293.000000,1.000002 
z"/>
<path fill="#FF4155" opacity="1.000000" stroke="none" 
	d="
M368.107208,486.819580 
	C347.422577,497.621674 325.627441,505.126709 302.599304,509.046356 
	C297.552338,509.905365 292.570862,511.148987 287.779602,512.607788 
	C267.645782,513.000000 247.291550,513.000000 226.468658,513.000000 
	C225.272919,512.335632 224.607193,511.178833 223.809723,511.079468 
	C206.660324,508.942627 189.979767,504.908936 173.371826,498.475220 
	C173.001740,495.289948 173.008591,492.620483 173.480469,489.900696 
	C185.622055,489.797638 197.298599,489.744934 209.442184,489.753143 
	C226.618759,489.770691 243.328308,489.727386 260.500916,489.732300 
	C276.646057,489.689606 292.328064,489.598724 308.354675,489.637878 
	C309.421692,489.727722 310.144135,489.687561 311.312134,489.698181 
	C313.829956,489.659119 315.902130,489.569305 318.329651,489.615234 
	C319.428558,489.713287 320.172089,489.675598 321.386536,489.685059 
	C327.519531,489.749847 333.188049,489.945496 338.842224,489.742188 
	C346.779938,489.456696 353.444702,486.721802 357.575378,479.022888 
	C360.295441,479.023285 362.587311,479.054291 364.959106,479.429108 
	C366.061768,482.121796 367.084473,484.470703 368.107208,486.819580 
z"/>
<path fill="#DDEDFE" opacity="1.000000" stroke="none" 
	d="
M292.531372,1.000002 
	C293.466949,1.661836 293.847809,2.815011 294.413391,2.914124 
	C311.534729,5.914466 326.556305,13.621811 339.741699,24.516878 
	C346.209839,29.861500 351.199860,36.994976 357.103424,43.953041 
	C358.988983,47.354683 360.629944,50.122158 361.964172,53.110100 
	C358.799042,62.423721 355.842438,64.049942 345.424957,61.907883 
	C341.067810,56.283745 337.447327,50.403667 332.765198,45.547096 
	C315.385193,27.519567 293.674622,20.002401 268.569794,20.354008 
	C267.476044,20.164406 266.741913,20.069962 265.961914,19.620525 
	C260.053040,10.480686 260.434814,7.134327 268.000000,1.000000 
	C276.020905,1.000000 284.041809,1.000000 292.531372,1.000002 
z"/>
<path fill="#D3DBFA" opacity="1.000000" stroke="none" 
	d="
M267.531342,1.000000 
	C260.434814,7.134327 260.053040,10.480686 265.504028,19.733175 
	C242.722565,19.749496 220.417557,19.685266 199.756042,30.760296 
	C194.126892,30.070509 190.249207,27.567116 189.639771,21.991804 
	C189.354385,19.380938 190.472473,16.616657 190.954498,13.921906 
	C190.954498,13.921906 190.988373,13.990926 191.176758,13.911723 
	C191.642288,13.676117 191.856888,13.458122 192.008926,13.178536 
	C200.945374,8.048746 210.470551,4.583177 220.658417,2.935628 
	C221.362106,2.821832 221.969574,2.113021 222.310883,1.340458 
	C237.020889,1.000000 252.041794,1.000000 267.531342,1.000000 
z"/>
<path fill="#9589E8" opacity="1.000000" stroke="none" 
	d="
M27.175894,354.933533 
	C22.803122,338.502045 17.276266,322.268585 14.412613,305.578186 
	C12.001336,291.524384 12.321506,276.945587 12.075076,262.588165 
	C11.528443,230.740463 19.004007,200.509171 31.285879,171.303925 
	C40.757893,148.780273 53.205120,127.977089 69.236679,109.653259 
	C79.384193,98.054787 91.249321,87.959076 102.702446,77.429306 
	C105.358620,87.302208 109.074959,96.859383 109.594658,106.587334 
	C110.242119,118.706726 104.775330,129.453979 96.181145,138.295364 
	C80.531059,154.395554 72.920662,173.590179 74.004860,196.105774 
	C74.884697,214.377533 86.393456,233.239395 106.257088,237.177429 
	C117.153030,239.337585 126.637024,244.561905 134.595337,252.883728 
	C151.283005,270.333710 147.312531,298.120117 125.264771,308.068787 
	C110.180573,314.875275 94.106796,319.515869 78.403099,324.914398 
	C63.721252,329.961609 49.395618,335.611115 37.471050,345.975342 
	C34.037636,348.959442 30.607523,351.947357 27.175894,354.933533 
z"/>
<path fill="#7E6DD1" opacity="1.000000" stroke="none" 
	d="
M27.195492,355.300903 
	C30.607523,351.947357 34.037636,348.959442 37.471050,345.975342 
	C49.395618,335.611115 63.721252,329.961609 78.403099,324.914398 
	C94.106796,319.515869 110.180573,314.875275 125.264771,308.068787 
	C147.312531,298.120117 151.283005,270.333710 134.595337,252.883728 
	C126.637024,244.561905 117.153030,239.337585 106.257088,237.177429 
	C86.393456,233.239395 74.884697,214.377533 74.004860,196.105774 
	C72.920662,173.590179 80.531059,154.395554 96.181145,138.295364 
	C104.775330,129.453979 110.242119,118.706726 109.594658,106.587334 
	C109.074959,96.859383 105.358620,87.302208 103.017799,77.291595 
	C115.933174,66.005806 130.141998,57.011963 145.221054,49.357563 
	C148.836807,47.522148 152.496155,45.772614 156.397614,44.266861 
	C139.529465,68.273445 132.045731,94.979233 131.940491,124.350647 
	C130.921280,127.321083 129.558502,129.905411 129.294525,132.597473 
	C128.829346,137.341827 129.034821,142.151917 128.665405,147.098236 
	C126.587830,149.814392 124.804352,152.366776 122.691833,155.025665 
	C116.056129,158.937225 111.722771,164.392014 110.967072,171.706665 
	C110.224564,178.893478 109.827499,186.273804 110.624001,193.419281 
	C111.493584,201.220383 115.381790,207.826111 123.136719,211.754578 
	C126.905388,221.113937 133.413116,225.676025 143.347229,225.233917 
	C148.495117,225.004822 153.657852,225.108780 158.946426,225.385925 
	C161.121429,227.437744 163.035034,230.410904 165.232788,230.638382 
	C169.998642,231.131638 174.909805,230.220840 179.826782,230.294952 
	C183.469193,249.521118 191.588150,266.123230 204.124893,281.013428 
	C202.704758,288.471558 201.816254,295.600494 199.837418,302.412750 
	C197.935989,308.958557 195.104431,315.329803 187.539917,318.015381 
	C185.404099,317.822327 183.479599,317.198944 181.897781,317.686737 
	C173.963303,320.133667 166.061142,322.718048 158.286514,325.625458 
	C156.559113,326.271423 155.392197,328.416138 153.603424,329.929504 
	C143.764923,334.783813 134.431808,339.893372 124.761421,344.255096 
	C119.117905,346.800568 113.058601,349.040405 106.973587,349.885223 
	C79.058502,353.760773 58.421841,367.588531 45.760201,392.951599 
	C39.578499,380.523834 33.396793,368.096039 27.195492,355.300903 
z"/>
<path fill="#E80154" opacity="1.000000" stroke="none" 
	d="
M45.857956,393.309906 
	C58.421841,367.588531 79.058502,353.760773 106.973587,349.885223 
	C113.058601,349.040405 119.117905,346.800568 124.761421,344.255096 
	C134.431808,339.893372 143.764923,334.783813 153.768707,330.242920 
	C161.895706,340.950592 169.493622,351.403595 176.624512,361.916046 
	C174.355911,361.991119 172.552383,362.068298 170.753143,362.010956 
	C164.890457,361.824219 159.302048,362.492065 154.540375,366.971985 
	C152.980911,368.396332 151.695786,369.679352 149.913177,370.894104 
	C147.254745,370.817810 145.090805,370.732025 142.933380,370.815247 
	C133.595490,371.175354 126.444412,377.643860 124.712143,387.217346 
	C118.457413,390.773621 114.202248,395.407196 114.053604,402.642975 
	C113.914101,409.433990 114.118996,416.232117 114.105301,423.487976 
	C113.967674,429.193604 113.897087,434.438385 113.549240,439.882538 
	C108.714951,445.356567 104.157921,450.631195 99.600891,455.905823 
	C96.051636,453.096436 92.237495,450.561218 88.998077,447.431152 
	C73.298279,432.261383 59.334682,415.649872 47.983528,396.932648 
	C47.319313,395.837402 46.632175,394.756042 45.857956,393.309906 
z"/>
<path fill="#FEAA7B" opacity="1.000000" stroke="none" 
	d="
M113.826500,439.683167 
	C113.897087,434.438385 113.967674,429.193604 114.328880,423.747864 
	C116.795357,431.728302 122.299706,436.003479 130.755630,436.028229 
	C138.541687,436.051025 146.327850,436.037354 154.113968,436.034790 
	C165.774918,436.030945 169.366409,433.652161 173.768341,423.541016 
	C173.862976,436.323151 173.956345,448.651093 173.849426,460.977264 
	C173.756744,471.662476 166.617661,478.700165 155.929749,478.944336 
	C153.936188,478.989868 151.944199,479.105530 149.761871,479.158142 
	C149.572250,479.127533 149.188614,479.107605 148.707184,479.074219 
	C142.779892,479.046204 137.334045,479.051605 131.888184,479.056976 
	C126.008102,475.283295 120.128029,471.509613 114.122078,466.946106 
	C113.939636,457.331909 113.883064,448.507538 113.826500,439.683167 
z"/>
<path fill="#BDC7F6" opacity="1.000000" stroke="none" 
	d="
M132.091782,124.013046 
	C132.045731,94.979233 139.529465,68.273445 156.759689,44.230408 
	C165.397293,31.059355 176.900223,21.514769 190.587021,13.958827 
	C190.472473,16.616657 189.354385,19.380938 189.639771,21.991804 
	C190.249207,27.567116 194.126892,30.070509 199.559326,31.036587 
	C185.596512,39.627399 174.553833,50.562466 166.878281,65.187561 
	C166.434113,65.924942 166.274261,66.514107 166.070160,67.058701 
	C166.025894,67.014130 166.138687,67.069435 165.839462,67.199036 
	C165.432480,67.933594 165.324707,68.538551 165.122559,69.136391 
	C165.028183,69.129272 165.218613,69.162300 164.863464,69.205688 
	C163.369843,71.250717 162.062790,73.176285 161.119812,75.266136 
	C154.110046,90.801445 152.017365,107.370995 150.673553,123.979141 
	C143.561844,118.504082 139.630661,118.548965 132.091782,124.013046 
z"/>
<path fill="#FC9360" opacity="1.000000" stroke="none" 
	d="
M113.549240,439.882538 
	C113.883064,448.507538 113.939636,457.331909 113.983856,466.632507 
	C109.330971,463.571259 104.690437,460.033783 99.825394,456.201080 
	C104.157921,450.631195 108.714951,445.356567 113.549240,439.882538 
z"/>
<path fill="#E70354" opacity="1.000000" stroke="none" 
	d="
M149.188614,479.107605 
	C149.188614,479.107605 149.572250,479.127533 149.894928,479.458130 
	C155.394608,488.610199 163.995865,489.749878 173.015442,489.951050 
	C173.008591,492.620483 173.001740,495.289948 172.988571,498.400421 
	C164.151230,494.918640 155.320206,490.995789 146.259369,486.613129 
	C147.082565,483.804718 148.135590,481.456177 149.188614,479.107605 
z"/>
<path fill="#FC9360" opacity="1.000000" stroke="none" 
	d="
M148.707184,479.074219 
	C148.135590,481.456177 147.082565,483.804718 145.909637,486.484528 
	C141.265305,484.440643 136.740875,482.065521 132.052307,479.373718 
	C137.334045,479.051605 142.779892,479.046204 148.707184,479.074219 
z"/>
<path fill="#BDC7F6" opacity="1.000000" stroke="none" 
	d="
M191.741821,13.123997 
	C191.856888,13.458122 191.642288,13.676117 191.141937,13.895418 
	C191.104065,13.662030 191.289398,13.365743 191.741821,13.123997 
z"/>
<path fill="#9589E8" opacity="1.000000" stroke="none" 
	d="
M411.022400,76.921143 
	C418.616943,83.734612 426.606964,90.161659 433.722382,97.443336 
	C447.794952,111.844795 459.779510,127.909981 469.804077,145.419250 
	C481.237274,165.388931 490.130768,186.416046 495.230927,208.854279 
	C497.822998,220.258148 499.887238,231.896881 500.800018,243.538437 
	C501.938324,258.056854 502.677155,272.755188 501.730255,287.254456 
	C500.231842,310.199829 495.211243,332.601044 486.569641,354.523193 
	C481.768433,350.905609 477.588837,346.670166 472.939453,343.035706 
	C461.504852,334.097198 448.088348,329.038208 434.558197,324.357086 
	C396.878479,311.320892 385.547852,262.950317 413.688782,234.848145 
	C416.855713,231.685577 420.741241,229.168945 423.569946,225.753494 
	C438.903656,207.239258 441.463348,186.458588 434.021942,163.993103 
	C430.042542,151.979385 421.968597,142.758636 413.960663,133.385422 
	C406.250580,124.360817 403.046906,113.619949 404.948700,101.934097 
	C406.322815,93.490593 408.952606,85.251434 411.022400,76.921143 
z"/>
<path fill="#7F6DD1" opacity="1.000000" stroke="none" 
	d="
M410.897461,76.599411 
	C408.952606,85.251434 406.322815,93.490593 404.948700,101.934097 
	C403.046906,113.619949 406.250580,124.360817 413.960663,133.385422 
	C421.968597,142.758636 430.042542,151.979385 434.021942,163.993103 
	C441.463348,186.458588 438.903656,207.239258 423.569946,225.753494 
	C420.741241,229.168945 416.855713,231.685577 413.688782,234.848145 
	C385.547852,262.950317 396.878479,311.320892 434.558197,324.357086 
	C448.088348,329.038208 461.504852,334.097198 472.939453,343.035706 
	C477.588837,346.670166 481.768433,350.905609 486.495178,354.901550 
	C480.819916,367.486115 474.811218,380.036774 468.403076,392.430664 
	C455.894745,369.101318 437.289337,354.757263 411.203522,350.791382 
	C403.306488,349.590759 395.688202,348.287842 388.514862,344.104462 
	C379.368683,338.770508 369.578583,334.540771 359.985779,329.498169 
	C358.303741,327.859802 356.897949,326.030090 355.065491,325.350098 
	C347.898102,322.690277 340.648102,320.214935 333.311920,318.071075 
	C331.102478,317.425385 328.514038,318.076447 325.777222,317.987366 
	C316.501038,313.360596 314.713470,304.531128 312.689301,295.965637 
	C320.750061,293.475586 328.385712,291.123016 336.382812,288.743530 
	C344.980103,284.797729 353.631439,281.553375 361.351929,276.797852 
	C372.226990,270.099274 377.845642,259.692200 378.170197,246.785583 
	C378.354065,239.472824 378.149658,232.150330 378.361053,224.606491 
	C385.078644,222.336563 388.644714,217.468536 391.429626,211.367676 
	C397.829865,207.917725 401.970917,202.752777 402.844818,196.116837 
	C403.853455,188.458176 404.212921,180.547363 403.492523,172.873886 
	C402.751862,164.984482 398.433014,158.613846 390.835266,154.585632 
	C388.776459,151.810715 386.899780,149.315231 384.982513,146.364532 
	C384.237122,138.566589 386.492401,130.812149 381.933228,123.549278 
	C380.962708,113.387741 380.522888,103.586388 378.815735,94.010994 
	C376.181976,79.238449 371.156860,65.238869 362.270905,52.889633 
	C360.629944,50.122158 358.988983,47.354683 357.264160,44.268181 
	C373.522217,50.939297 388.716949,59.910145 402.983734,70.482292 
	C405.583771,72.408997 408.176453,74.345627 410.897461,76.599411 
z"/>
<path fill="#FF4156" opacity="1.000000" stroke="none" 
	d="
M360.066040,329.835052 
	C369.578583,334.540771 379.368683,338.770508 388.514862,344.104462 
	C395.688202,348.287842 403.306488,349.590759 411.203522,350.791382 
	C437.289337,354.757263 455.894745,369.101318 468.116272,392.612000 
	C462.900970,401.047607 458.131531,409.591309 452.107178,417.132507 
	C444.125458,427.123901 435.263916,436.425171 426.570312,445.828705 
	C423.237549,449.433685 419.325958,452.503510 415.208130,455.655884 
	C409.868195,450.276794 404.998230,445.059021 400.095581,439.385193 
	C399.969055,433.943054 399.875244,428.956970 399.841309,423.506958 
	C399.934235,418.103424 399.628113,413.133026 400.072327,408.230621 
	C400.939697,398.658051 397.579346,391.536072 389.000854,386.638367 
	C386.493225,376.293549 379.850159,370.962189 369.786987,370.895752 
	C365.463440,370.867188 361.139252,370.940338 356.546570,370.783203 
	C351.472443,364.022369 344.708008,361.787842 337.038025,361.553925 
	C344.803619,350.778137 352.434814,340.306580 360.066040,329.835052 
z"/>
<path fill="#FEA97B" opacity="1.000000" stroke="none" 
	d="
M399.781403,423.970856 
	C399.875244,428.956970 399.969055,433.943054 400.052765,439.868225 
	C400.037231,449.574432 400.031799,458.341614 400.026398,467.108765 
	C394.292572,471.067291 388.558746,475.025818 381.994293,479.003113 
	C375.735504,479.042999 370.307312,479.064148 364.879150,479.085266 
	C362.587311,479.054291 360.295441,479.023285 357.178101,478.956909 
	C345.227173,476.859650 340.212830,470.961945 340.145477,459.865936 
	C340.097137,451.904999 340.043671,443.944092 340.005188,435.526215 
	C339.998260,431.703949 339.978607,428.338623 340.003113,424.652893 
	C340.141083,423.913513 340.234924,423.494537 340.529541,423.336182 
	C343.888580,432.721466 348.472931,436.015381 358.081512,436.031525 
	C365.712250,436.044373 373.372650,435.611511 380.966400,436.141785 
	C390.559021,436.811615 396.255920,432.269562 399.781403,423.970856 
z"/>
<path fill="#FC9360" opacity="1.000000" stroke="none" 
	d="
M400.382812,467.058716 
	C400.031799,458.341614 400.037231,449.574432 400.085449,440.324280 
	C404.998230,445.059021 409.868195,450.276794 414.901062,455.792236 
	C410.289032,459.729462 405.514160,463.369049 400.382812,467.058716 
z"/>
<path fill="#FC9360" opacity="1.000000" stroke="none" 
	d="
M364.959106,479.429077 
	C370.307312,479.064148 375.735504,479.042999 381.638184,479.037903 
	C377.667328,481.596558 373.221924,484.139221 368.441864,486.750732 
	C367.084473,484.470703 366.061768,482.121796 364.959106,479.429077 
z"/>
<path fill="#6F5779" opacity="1.000000" stroke="none" 
	d="
M173.480484,489.900696 
	C163.995865,489.749878 155.394608,488.610199 150.084549,479.488739 
	C151.944199,479.105530 153.936188,478.989868 155.929749,478.944336 
	C166.617661,478.700165 173.756744,471.662476 173.849426,460.977264 
	C173.956345,448.651093 173.862976,436.323151 173.834656,423.075012 
	C173.915176,418.423737 174.017609,414.693512 174.454620,411.014099 
	C175.359833,411.390869 176.017990,411.622101 176.488220,412.056702 
	C185.992874,420.840149 195.447952,429.677399 204.983322,438.427216 
	C207.310150,440.562317 209.886017,442.426056 212.347382,444.414551 
	C208.821609,433.844452 211.694794,424.774841 217.378937,416.044189 
	C221.314163,416.609222 225.763184,416.024017 228.114182,417.971466 
	C240.370438,428.123962 252.070389,438.946259 264.009857,449.483459 
	C271.343842,455.956055 278.835114,462.251709 286.118744,468.779724 
	C293.523010,475.415985 300.759033,482.239868 308.044617,489.112122 
	C308.020447,489.242615 308.010101,489.507843 308.010101,489.507843 
	C292.328064,489.598724 276.646057,489.689606 260.430664,489.417908 
	C251.074234,480.785278 242.289810,472.473511 233.414902,464.259521 
	C227.231567,458.536743 220.924088,452.948059 214.490265,447.135193 
	C208.185272,454.727631 204.006531,462.769958 205.106308,472.427704 
	C205.769775,478.253845 207.644623,483.942078 208.975143,489.692261 
	C197.298599,489.744934 185.622055,489.797638 173.480484,489.900696 
z"/>
<path fill="#57415E" opacity="1.000000" stroke="none" 
	d="
M339.992462,435.983154 
	C340.043671,443.944092 340.097137,451.904999 340.145477,459.865936 
	C340.212830,470.961945 345.227173,476.859650 356.749878,478.987549 
	C353.444702,486.721802 346.779938,489.456696 338.842224,489.742188 
	C333.188049,489.945496 327.519531,489.749847 321.181763,489.502136 
	C319.682251,488.822540 318.858398,488.373077 317.874634,487.632233 
	C314.316162,483.939117 311.081024,480.353424 307.492401,477.165649 
	C285.148163,457.317413 262.520538,437.782013 240.447922,417.637756 
	C233.521652,411.316589 226.914780,406.044189 216.913361,407.505310 
	C213.531219,399.317749 214.473526,391.928101 219.350342,385.059448 
	C245.133942,408.634705 270.674255,431.994110 296.065308,455.514648 
	C299.917694,459.083221 303.133667,459.347992 307.511139,456.469543 
	C318.204834,449.437836 329.149078,442.787231 339.992462,435.983154 
z"/>
<path fill="#866C92" opacity="1.000000" stroke="none" 
	d="
M216.951218,407.882355 
	C226.914780,406.044189 233.521652,411.316589 240.447922,417.637756 
	C262.520538,437.782013 285.148163,457.317413 307.492401,477.165649 
	C311.081024,480.353424 314.316162,483.939117 317.860626,487.893433 
	C317.995789,488.790497 317.985077,489.135010 317.974335,489.479523 
	C315.902130,489.569305 313.829956,489.659119 311.081177,489.519684 
	C309.625977,489.187469 308.847351,489.084534 308.068756,488.981598 
	C300.759033,482.239868 293.523010,475.415985 286.118744,468.779724 
	C278.835114,462.251709 271.343842,455.956055 264.009857,449.483459 
	C252.070389,438.946259 240.370438,428.123962 228.114182,417.971466 
	C225.763184,416.024017 221.314163,416.609222 216.919022,416.021606 
	C211.873886,416.010559 207.728485,415.788666 203.615967,416.061951 
	C200.000397,416.302246 197.446274,415.007050 194.857346,412.543304 
	C188.890198,406.864777 182.666702,401.445740 176.376083,396.123688 
	C174.710281,394.714447 172.423462,394.039246 170.218689,392.939575 
	C169.673187,392.385864 169.330795,391.919525 168.899597,391.150238 
	C168.519333,390.563263 168.227875,390.279297 167.970642,390.000610 
	C168.004868,390.005859 167.992386,390.073975 167.902206,389.823303 
	C167.519043,389.386902 167.226074,389.201172 166.965118,389.010895 
	C166.997116,389.006348 166.980759,389.068909 166.890533,388.820557 
	C166.507462,388.392731 166.214615,388.213318 165.955902,388.024353 
	C165.990036,388.014832 165.969070,388.082550 165.863861,387.760345 
	C160.470245,382.598022 155.181854,377.757874 149.934540,372.581940 
	C150.120636,371.818207 150.265656,371.390320 150.410660,370.962402 
	C151.695786,369.679352 152.980911,368.396332 154.840012,367.159729 
	C167.146362,377.523376 179.302261,387.406891 190.465012,398.307434 
	C198.146210,405.808228 206.179764,410.034882 216.951218,407.882355 
z"/>
<path fill="#8A6B90" opacity="1.000000" stroke="none" 
	d="
M209.442184,489.753143 
	C207.644623,483.942078 205.769775,478.253845 205.106308,472.427704 
	C204.006531,462.769958 208.185272,454.727631 214.490265,447.135193 
	C220.924088,452.948059 227.231567,458.536743 233.414902,464.259521 
	C242.289810,472.473511 251.074234,480.785278 259.967590,489.369690 
	C243.328308,489.727386 226.618759,489.770691 209.442184,489.753143 
z"/>
<path fill="#8A6B90" opacity="1.000000" stroke="none" 
	d="
M318.329651,489.615234 
	C317.985077,489.135010 317.995789,488.790497 318.020538,488.184814 
	C318.858398,488.373077 319.682251,488.822540 320.710876,489.454956 
	C320.172089,489.675598 319.428558,489.713287 318.329651,489.615234 
z"/>
<path fill="#8A6B90" opacity="1.000000" stroke="none" 
	d="
M308.044617,489.112122 
	C308.847351,489.084534 309.625977,489.187469 310.635559,489.468933 
	C310.144135,489.687561 309.421692,489.727722 308.354675,489.637878 
	C308.010101,489.507843 308.020447,489.242615 308.044617,489.112122 
z"/>
<path fill="#56415F" opacity="1.000000" stroke="none" 
	d="
M268.929382,20.449165 
	C293.674622,20.002401 315.385193,27.519567 332.765198,45.547096 
	C337.447327,50.403667 341.067810,56.283745 345.463196,62.246231 
	C346.095825,63.604179 346.440918,64.409897 346.839478,65.502129 
	C347.251953,66.207466 347.610931,66.626274 347.985352,67.023201 
	C348.000824,67.001312 347.948181,67.011246 347.918884,67.327370 
	C348.248291,68.107216 348.606995,68.570938 348.981262,69.015472 
	C348.996826,68.996284 348.953156,69.020615 348.894073,69.423088 
	C350.569733,77.574684 353.332367,85.259216 353.824249,93.086441 
	C354.833099,109.141426 354.624756,125.272896 354.613831,141.172791 
	C349.196808,136.034012 339.781189,135.497040 332.744568,139.418335 
	C332.021210,134.813858 331.158447,130.546494 331.184326,126.284538 
	C331.245300,116.241676 331.010529,106.305183 327.149567,96.815903 
	C323.580719,88.044655 317.362427,82.372841 308.119873,79.971268 
	C299.544922,77.743179 290.997284,78.198700 282.376190,79.604477 
	C272.261230,81.253845 262.738953,86.365234 252.049927,84.611870 
	C252.023224,84.418945 251.969406,84.033150 251.839783,83.711967 
	C249.141998,76.276695 245.207672,69.334396 244.287064,62.013138 
	C242.306717,46.264175 251.674393,35.470600 262.887726,26.032454 
	C264.983398,24.268538 266.919586,22.315136 268.929382,20.449165 
z"/>
<path fill="#35253B" opacity="1.000000" stroke="none" 
	d="
M268.569794,20.354008 
	C266.919586,22.315136 264.983398,24.268538 262.887726,26.032454 
	C251.674393,35.470600 242.306717,46.264175 244.287064,62.013138 
	C245.207672,69.334396 249.141998,76.276695 251.428589,83.734688 
	C250.004059,83.907104 248.852097,83.781044 247.719559,83.556900 
	C239.107727,81.852654 230.557602,79.100159 221.879196,78.611534 
	C199.068039,77.327156 187.101837,86.405029 183.899643,108.122688 
	C183.008118,114.169090 183.290634,120.381653 182.868332,126.506523 
	C182.561691,130.954025 181.981339,135.382645 181.207901,139.614105 
	C173.545578,135.489563 164.584625,136.200607 159.560226,140.753967 
	C159.480118,125.047302 159.099152,109.630814 160.074997,94.300682 
	C160.613144,85.846336 163.429382,77.537003 165.218613,69.162300 
	C165.218613,69.162300 165.028183,69.129272 165.397034,68.991364 
	C165.890152,68.258774 166.014420,67.664108 166.138687,67.069435 
	C166.138687,67.069435 166.025894,67.014130 166.343719,66.910309 
	C166.828568,66.217445 166.995575,65.628395 167.162598,65.039337 
	C174.553833,50.562466 185.596512,39.627399 199.813538,31.304291 
	C220.417557,19.685266 242.722565,19.749496 265.549866,20.088169 
	C266.741913,20.069962 267.476044,20.164406 268.569794,20.354008 
z"/>
<path fill="#D2DAFA" opacity="1.000000" stroke="none" 
	d="
M346.786011,65.215607 
	C346.440918,64.409897 346.095825,63.604179 345.712524,62.460117 
	C355.842438,64.049942 358.799042,62.423721 361.964172,53.110100 
	C371.156860,65.238869 376.181976,79.238449 378.815735,94.010994 
	C380.522888,103.586388 380.962708,113.387741 381.626801,123.394417 
	C374.448303,118.466751 370.422150,118.569466 362.967987,123.717102 
	C361.560669,112.981689 361.033966,102.490311 358.569763,92.475677 
	C356.572784,84.359947 352.246399,76.817390 348.953186,69.020615 
	C348.953156,69.020615 348.996826,68.996284 349.016357,68.702126 
	C348.673340,67.942390 348.310760,67.476814 347.948181,67.011246 
	C347.948181,67.011246 348.000824,67.001312 347.998047,66.712944 
	C347.592163,66.021584 347.189087,65.618599 346.786011,65.215607 
z"/>
<path fill="#36253B" opacity="1.000000" stroke="none" 
	d="
M204.179764,280.545776 
	C191.588150,266.123230 183.469193,249.521118 180.009979,230.014847 
	C181.086990,228.108047 182.046021,226.892151 183.298355,225.861755 
	C188.692596,232.298157 194.514648,237.554459 202.581451,240.112946 
	C206.462936,223.052078 215.557312,211.224152 233.133118,207.914124 
	C232.063293,211.449951 230.726608,214.493439 230.074585,217.677170 
	C228.622650,224.766708 231.824310,230.064972 236.926651,234.543610 
	C228.977631,237.196671 222.813660,241.895370 217.802231,248.004791 
	C216.796280,249.231125 216.566071,252.081970 217.275421,253.562164 
	C221.075745,261.492340 227.718735,266.446808 235.991913,268.776245 
	C241.675934,270.376678 247.219803,269.469238 251.410095,263.980865 
	C252.577164,261.876465 253.260666,259.844971 254.342056,258.053650 
	C255.254303,256.542450 256.628418,255.310089 257.798096,253.954330 
	C258.995880,255.247086 260.854645,256.355469 261.275757,257.864899 
	C262.996826,264.034058 266.785767,267.780792 272.949615,269.634338 
	C272.699402,275.105164 272.457855,280.168518 272.047913,285.542938 
	C266.969208,293.874634 269.565643,300.027313 278.557068,302.428711 
	C271.230347,304.472046 264.111145,306.255951 256.570526,307.958618 
	C247.940598,307.460754 239.925812,305.877930 233.068527,301.266693 
	C223.239136,294.656891 213.790787,287.480347 204.179764,280.545776 
z"/>
<path fill="#FB9460" opacity="1.000000" stroke="none" 
	d="
M204.124893,281.013428 
	C213.790787,287.480347 223.239136,294.656891 233.068527,301.266693 
	C239.925812,305.877930 247.940598,307.460754 256.556519,308.376038 
	C256.654877,310.330078 256.119629,311.777893 256.071289,313.241821 
	C255.521317,329.912415 251.708511,345.966003 246.556808,361.924255 
	C242.720276,361.945740 239.339493,361.901733 235.714981,361.618713 
	C229.197800,357.700989 222.512878,354.569763 216.737457,350.228577 
	C205.075455,341.462494 195.969925,330.200867 187.909241,318.097443 
	C195.104431,315.329803 197.935989,308.958557 199.837418,302.412750 
	C201.816254,295.600494 202.704758,288.471558 204.124893,281.013428 
z"/>
<path fill="#BEC7F6" opacity="1.000000" stroke="none" 
	d="
M187.539917,318.015381 
	C195.969925,330.200867 205.075455,341.462494 216.737457,350.228577 
	C222.512878,354.569763 229.197800,357.700989 235.261932,361.672913 
	C231.696014,362.024384 228.339401,362.082642 224.518524,362.085876 
	C218.051727,362.082733 212.049194,362.134644 205.589142,362.118561 
	C201.732147,362.096741 198.332703,362.142944 194.473663,362.124756 
	C188.373230,361.992432 182.732376,361.924500 177.091537,361.856567 
	C169.493622,351.403595 161.895706,340.950592 154.132507,330.184204 
	C155.392197,328.416138 156.559113,326.271423 158.286514,325.625458 
	C166.061142,322.718048 173.963303,320.133667 181.897781,317.686737 
	C183.479599,317.198944 185.404099,317.822327 187.539917,318.015381 
z"/>
<path fill="#E80356" opacity="1.000000" stroke="none" 
	d="
M158.813873,225.062286 
	C153.657852,225.108780 148.495117,225.004822 143.347229,225.233917 
	C133.413116,225.676025 126.905388,221.113937 123.159081,211.240143 
	C122.993973,196.971283 122.994583,183.484375 123.259430,170.212479 
	C127.215950,179.058228 133.377792,183.693771 143.142502,183.088882 
	C148.240662,182.773071 153.375259,183.045303 158.454788,183.389587 
	C158.576584,184.146454 158.736984,184.565674 158.814316,185.448517 
	C158.758804,198.962173 158.786331,212.012222 158.813873,225.062286 
z"/>
<path fill="#D3DCFB" opacity="1.000000" stroke="none" 
	d="
M158.946426,225.385910 
	C158.786331,212.012222 158.758804,198.962173 159.137512,185.600403 
	C166.724350,191.287003 177.506622,190.697617 183.028870,184.473969 
	C183.046967,198.519333 183.026016,212.097794 183.005066,225.676239 
	C182.046021,226.892151 181.086990,228.108047 179.944763,229.604065 
	C174.909805,230.220840 169.998642,231.131638 165.232788,230.638382 
	C163.035034,230.410904 161.121429,227.437744 158.946426,225.385910 
z"/>
<path fill="#FD7187" opacity="1.000000" stroke="none" 
	d="
M131.940491,124.350647 
	C139.630661,118.548965 143.561844,118.504082 150.818512,124.306900 
	C152.193054,130.520752 153.112915,136.232147 153.760956,142.260193 
	C153.341965,146.037994 153.177155,149.498474 153.051514,152.960388 
	C152.825668,159.182617 147.576080,164.112198 141.307785,163.963120 
	C134.980057,163.812637 130.242859,159.233871 129.913681,153.135788 
	C129.801498,151.057571 129.289047,149.000977 128.959488,146.934494 
	C129.034821,142.151917 128.829346,137.341827 129.294525,132.597473 
	C129.558502,129.905411 130.921280,127.321083 131.940491,124.350647 
z"/>
<path fill="#FE4458" opacity="1.000000" stroke="none" 
	d="
M128.665405,147.098236 
	C129.289047,149.000977 129.801498,151.057571 129.913681,153.135788 
	C130.242859,159.233871 134.980057,163.812637 141.307785,163.963120 
	C147.576080,164.112198 152.825668,159.182617 153.051514,152.960388 
	C153.177155,149.498474 153.341965,146.037994 154.190781,142.255310 
	C156.321335,141.974091 157.750229,142.014435 159.098083,142.512985 
	C158.842499,156.331451 158.667938,169.691696 158.493378,183.051941 
	C153.375259,183.045303 148.240662,182.773071 143.142502,183.088882 
	C133.377792,183.693771 127.215950,179.058228 123.237473,169.746826 
	C122.974480,164.350494 122.997673,159.634827 123.020874,154.919174 
	C124.804352,152.366776 126.587830,149.814392 128.665405,147.098236 
z"/>
<path fill="#FD7087" opacity="1.000000" stroke="none" 
	d="
M122.691833,155.025665 
	C122.997673,159.634827 122.974480,164.350494 122.973236,169.531799 
	C122.994583,183.484375 122.993973,196.971283 122.971001,210.972626 
	C115.381790,207.826111 111.493584,201.220383 110.624001,193.419281 
	C109.827499,186.273804 110.224564,178.893478 110.967072,171.706665 
	C111.722771,164.392014 116.056129,158.937225 122.691833,155.025665 
z"/>
<path fill="#FEC6AB" opacity="1.000000" stroke="none" 
	d="
M168.988403,391.453217 
	C169.330795,391.919525 169.673187,392.385864 170.406769,393.281311 
	C171.905334,399.461395 173.012695,405.212341 174.120056,410.963257 
	C174.017609,414.693512 173.915176,418.423737 173.746429,422.620026 
	C169.366409,433.652161 165.774918,436.030945 154.113968,436.034790 
	C146.327850,436.037354 138.541687,436.051025 130.755630,436.028229 
	C122.299706,436.003479 116.795357,431.728302 114.395920,423.286987 
	C114.118996,416.232117 113.914101,409.433990 114.053604,402.642975 
	C114.202248,395.407196 118.457413,390.773621 125.183365,387.218414 
	C133.077881,386.860870 140.243896,386.715729 147.849289,386.578308 
	C154.182129,387.084869 160.075607,387.583710 165.969070,388.082550 
	C165.969070,388.082550 165.990036,388.014832 165.885223,388.350037 
	C166.180542,388.813110 166.580658,388.941010 166.980759,389.068909 
	C166.980759,389.068909 166.997116,389.006348 166.977448,389.305389 
	C167.302658,389.760925 167.647522,389.917450 167.992386,390.073975 
	C167.992386,390.073975 168.004868,390.005859 168.046402,390.301819 
	C168.388092,390.882904 168.688248,391.168060 168.988403,391.453217 
z"/>
<path fill="#46304C" opacity="1.000000" stroke="none" 
	d="
M176.624512,361.916016 
	C182.732376,361.924500 188.373230,361.992432 194.638733,362.407043 
	C203.145294,369.852692 211.027191,376.951660 218.951843,384.261047 
	C218.994583,384.471466 219.058426,384.896118 219.058426,384.896118 
	C214.473526,391.928101 213.531219,399.317749 216.913361,407.505310 
	C206.179764,410.034882 198.146210,405.808228 190.465012,398.307434 
	C179.302261,387.406891 167.146362,377.523376 155.114380,367.018402 
	C159.302048,362.492065 164.890457,361.824219 170.753143,362.010956 
	C172.552383,362.068298 174.355911,361.991119 176.624512,361.916016 
z"/>
<path fill="#FBA87C" opacity="1.000000" stroke="none" 
	d="
M147.409912,386.570618 
	C140.243896,386.715729 133.077881,386.860870 125.440643,387.004883 
	C126.444412,377.643860 133.595490,371.175354 142.933380,370.815247 
	C145.090805,370.732025 147.254745,370.817810 149.913177,370.894104 
	C150.265656,371.390320 150.120636,371.818207 149.669327,372.833679 
	C148.711990,377.804352 148.060959,382.187500 147.409912,386.570618 
z"/>
<path fill="#7F6ED0" opacity="1.000000" stroke="none" 
	d="
M159.179138,142.054779 
	C157.750229,142.014435 156.321335,141.974091 154.462616,141.938629 
	C153.112915,136.232147 152.193054,130.520752 151.128235,124.481606 
	C152.017365,107.370995 154.110046,90.801445 161.119812,75.266136 
	C162.062790,73.176285 163.369843,71.250717 164.863464,69.205688 
	C163.429382,77.537003 160.613144,85.846336 160.074997,94.300682 
	C159.099152,109.630814 159.480118,125.047302 159.563141,140.968658 
	C159.699234,141.792999 159.481766,141.974731 159.179138,142.054779 
z"/>
<path fill="#7F6ED0" opacity="1.000000" stroke="none" 
	d="
M166.878265,65.187553 
	C166.995575,65.628395 166.828568,66.217445 166.387985,66.954880 
	C166.274261,66.514107 166.434113,65.924942 166.878265,65.187553 
z"/>
<path fill="#7F6ED0" opacity="1.000000" stroke="none" 
	d="
M165.839462,67.199036 
	C166.014420,67.664108 165.890152,68.258774 165.491425,68.998474 
	C165.324707,68.538551 165.432480,67.933594 165.839462,67.199036 
z"/>
<path fill="#FFAA7B" opacity="1.000000" stroke="none" 
	d="
M247.012573,361.858734 
	C251.708511,345.966003 255.521317,329.912415 256.071289,313.241821 
	C256.119629,311.777893 256.654877,310.330078 256.977966,308.457336 
	C264.111145,306.255951 271.230347,304.472046 279.037842,302.388367 
	C282.871216,302.038452 286.084473,302.385315 289.147888,301.859436 
	C296.612518,300.578125 304.958405,302.369873 311.251709,295.962616 
	C311.727386,296.012756 311.995880,296.057495 312.264221,296.103180 
	C314.713470,304.531128 316.501038,313.360596 325.616455,318.280334 
	C313.102264,336.667999 298.994202,353.032013 277.599579,361.928223 
	C267.091339,361.953491 257.051971,361.906128 247.012573,361.858734 
z"/>
<path fill="#DEEDFE" opacity="1.000000" stroke="none" 
	d="
M278.068420,361.855530 
	C298.994202,353.032013 313.102264,336.667999 325.938446,318.426453 
	C328.514038,318.076447 331.102478,317.425385 333.311920,318.071075 
	C340.648102,320.214935 347.898102,322.690277 355.065491,325.350098 
	C356.897949,326.030090 358.303741,327.859802 359.985779,329.498169 
	C352.434814,340.306580 344.803619,350.778137 336.578064,361.613251 
	C316.678619,361.936401 297.373505,361.895966 278.068420,361.855530 
z"/>
<path fill="#E80154" opacity="1.000000" stroke="none" 
	d="
M391.087921,211.511139 
	C388.644714,217.468536 385.078644,222.336563 377.884094,224.639313 
	C373.115936,225.088394 369.065643,225.278931 364.556030,225.367737 
	C361.179779,225.235062 358.262787,225.204102 355.384735,224.692902 
	C355.419037,211.123291 355.414398,198.033966 355.567078,184.646667 
	C355.829132,183.912491 355.933899,183.476288 356.504822,183.042664 
	C360.798889,183.043976 364.660095,182.716660 368.448425,183.103271 
	C379.257416,184.206421 386.713654,179.839371 391.089630,170.457550 
	C391.093231,184.455460 391.090576,197.983292 391.087921,211.511139 
z"/>
<path fill="#DDECFE" opacity="1.000000" stroke="none" 
	d="
M365.015350,225.469482 
	C369.065643,225.278931 373.115936,225.088394 377.643188,224.865021 
	C378.149658,232.150330 378.354065,239.472824 378.170197,246.785583 
	C377.845642,259.692200 372.226990,270.099274 361.351929,276.797852 
	C353.631439,281.553375 344.980103,284.797729 336.299316,288.417969 
	C331.654510,285.097290 331.729919,280.702362 332.357056,276.054260 
	C338.826447,273.031616 345.082794,270.394531 351.101318,267.295563 
	C360.340820,262.538086 364.753082,254.635269 364.932037,244.341614 
	C365.041382,238.052322 364.992920,231.760284 365.015350,225.469482 
z"/>
<path fill="#FD7187" opacity="1.000000" stroke="none" 
	d="
M363.011414,124.167145 
	C370.422150,118.569466 374.448303,118.466751 381.589661,123.855843 
	C386.492401,130.812149 384.237122,138.566589 384.963104,146.806244 
	C384.906128,149.189926 384.982117,150.704025 384.724060,152.158844 
	C383.371246,159.785019 378.849854,164.067139 372.356354,163.992264 
	C366.056580,163.919617 361.593201,159.794724 360.394501,152.344818 
	C359.847229,148.943634 360.111389,145.411896 360.062988,141.488586 
	C361.082733,135.414246 362.047058,129.790695 363.011414,124.167145 
z"/>
<path fill="#FF4156" opacity="1.000000" stroke="none" 
	d="
M360.007538,141.939362 
	C360.111389,145.411896 359.847229,148.943634 360.394501,152.344818 
	C361.593201,159.794724 366.056580,163.919617 372.356354,163.992264 
	C378.849854,164.067139 383.371246,159.785019 384.724060,152.158844 
	C384.982117,150.704025 384.906128,149.189926 385.003662,147.261475 
	C386.899780,149.315231 388.776459,151.810715 390.824249,155.057922 
	C391.024689,160.535583 391.054016,165.261536 391.083374,169.987473 
	C386.713654,179.839371 379.257416,184.206421 368.448425,183.103271 
	C364.660095,182.716660 360.798889,183.043976 356.370483,182.585724 
	C355.728485,179.978561 355.686340,177.830978 355.645599,175.683350 
	C355.432678,164.459961 355.220123,153.236572 355.423035,141.986298 
	C357.228271,141.952713 358.617920,141.946030 360.007538,141.939362 
z"/>
<path fill="#FD6F86" opacity="1.000000" stroke="none" 
	d="
M391.089600,170.457550 
	C391.054016,165.261536 391.024689,160.535583 391.006348,155.337341 
	C398.433014,158.613846 402.751862,164.984482 403.492523,172.873886 
	C404.212921,180.547363 403.853455,188.458176 402.844818,196.116837 
	C401.970917,202.752777 397.829865,207.917725 391.429626,211.367676 
	C391.090576,197.983292 391.093231,184.455460 391.089600,170.457550 
z"/>
<path fill="#D2D9F9" opacity="1.000000" stroke="none" 
	d="
M332.037415,276.232910 
	C331.729919,280.702362 331.654510,285.097290 335.937897,288.444885 
	C328.385712,291.123016 320.750061,293.475586 312.689301,295.965637 
	C311.995880,296.057495 311.727386,296.012756 311.306274,295.568909 
	C313.621704,290.113403 311.318024,286.057281 308.690491,282.074188 
	C309.303650,281.907166 309.648590,281.791138 310.376831,281.818329 
	C317.852570,280.052002 324.945007,278.142456 332.037415,276.232910 
z"/>
<path fill="#56405E" opacity="1.000000" stroke="none" 
	d="
M277.599579,361.928223 
	C297.373505,361.895966 316.678619,361.936401 336.443695,361.917511 
	C344.708008,361.787842 351.472443,364.022369 356.651917,371.151428 
	C357.889099,376.701172 358.752167,381.698639 359.195618,386.669800 
	C354.909332,387.536285 351.042694,388.429108 347.116455,388.884796 
	C346.716705,379.909973 344.741180,377.994751 336.264984,377.993225 
	C327.110687,377.991547 317.943604,378.302979 308.804749,377.927246 
	C290.655579,377.181030 291.916229,380.314819 292.068695,395.861176 
	C292.121338,401.230133 295.143158,403.999725 300.528748,404.010315 
	C313.677521,404.036224 326.826416,404.004822 340.052216,404.459717 
	C340.195740,410.973785 340.262268,417.024658 340.328796,423.075531 
	C340.234924,423.494537 340.141083,423.913513 339.674377,424.780731 
	C329.814484,429.624664 320.250305,433.863708 310.873444,438.483002 
	C306.277649,440.747009 302.677338,440.465240 298.647888,437.082794 
	C287.839447,428.009705 276.767303,419.249023 265.742188,410.436401 
	C251.223740,398.831451 236.650238,387.295380 221.985870,375.499756 
	C221.575943,374.854004 221.280548,374.438171 221.259552,373.747314 
	C222.683578,369.695160 223.833191,365.918030 224.982788,362.140869 
	C228.339401,362.082642 231.696014,362.024384 235.505676,361.911926 
	C239.339493,361.901733 242.720276,361.945740 246.556808,361.924255 
	C257.051971,361.906128 267.091339,361.953491 277.599579,361.928223 
z"/>
<path fill="#FFC7AB" opacity="1.000000" stroke="none" 
	d="
M340.529541,423.336182 
	C340.262268,417.024658 340.195740,410.973785 340.142822,404.082275 
	C340.398987,397.544067 343.052551,393.062378 347.176025,389.321899 
	C351.042694,388.429108 354.909332,387.536285 359.685852,386.748993 
	C370.061340,386.910187 379.527008,386.965851 388.992676,387.021515 
	C397.579346,391.536072 400.939697,398.658051 400.072327,408.230621 
	C399.628113,413.133026 399.934235,418.103424 399.841309,423.506958 
	C396.255920,432.269562 390.559021,436.811615 380.966400,436.141785 
	C373.372650,435.611511 365.712250,436.044373 358.081512,436.031525 
	C348.472931,436.015381 343.888580,432.721466 340.529541,423.336182 
z"/>
<path fill="#FEA97C" opacity="1.000000" stroke="none" 
	d="
M389.000854,386.638367 
	C379.527008,386.965851 370.061340,386.910187 360.105438,386.775330 
	C358.752167,381.698639 357.889099,376.701172 356.920685,371.335510 
	C361.139252,370.940338 365.463440,370.867188 369.786987,370.895752 
	C379.850159,370.962189 386.493225,376.293549 389.000854,386.638367 
z"/>
<path fill="#FC7085" opacity="1.000000" stroke="none" 
	d="
M222.100388,375.729706 
	C236.650238,387.295380 251.223740,398.831451 265.742188,410.436401 
	C276.767303,419.249023 287.839447,428.009705 298.647888,437.082794 
	C302.677338,440.465240 306.277649,440.747009 310.873444,438.483002 
	C320.250305,433.863708 329.814484,429.624664 339.630249,425.101135 
	C339.978607,428.338623 339.998260,431.703949 340.005188,435.526215 
	C329.149078,442.787231 318.204834,449.437836 307.511139,456.469543 
	C303.133667,459.347992 299.917694,459.083221 296.065308,455.514648 
	C270.674255,431.994110 245.133942,408.634705 219.350342,385.059448 
	C219.058426,384.896118 218.994583,384.471466 218.978943,383.863159 
	C220.009003,380.746460 221.054688,378.238068 222.100388,375.729706 
z"/>
<path fill="#56415F" opacity="1.000000" stroke="none" 
	d="
M174.454620,411.014099 
	C173.012695,405.212341 171.905334,399.461395 170.609894,393.368744 
	C172.423462,394.039246 174.710281,394.714447 176.376083,396.123688 
	C182.666702,401.445740 188.890198,406.864777 194.857346,412.543304 
	C197.446274,415.007050 200.000397,416.302246 203.615967,416.061951 
	C207.728485,415.788666 211.873886,416.010559 216.464920,416.039764 
	C211.694794,424.774841 208.821609,433.844452 212.347382,444.414551 
	C209.886017,442.426056 207.310150,440.562317 204.983322,438.427216 
	C195.447952,429.677399 185.992874,420.840149 176.488220,412.056702 
	C176.017990,411.622101 175.359833,411.390869 174.454620,411.014099 
z"/>
<path fill="#5B4460" opacity="1.000000" stroke="none" 
	d="
M147.849304,386.578339 
	C148.060959,382.187500 148.711990,377.804352 149.628235,373.169495 
	C155.181854,377.757874 160.470245,382.598022 165.863861,387.760345 
	C160.075607,387.583710 154.182129,387.084869 147.849304,386.578339 
z"/>
<path fill="#56415F" opacity="1.000000" stroke="none" 
	d="
M168.899597,391.150238 
	C168.688248,391.168060 168.388092,390.882904 168.012177,390.296539 
	C168.227875,390.279297 168.519333,390.563263 168.899597,391.150238 
z"/>
<path fill="#56415F" opacity="1.000000" stroke="none" 
	d="
M167.902206,389.823303 
	C167.647522,389.917450 167.302658,389.760925 166.945450,389.309937 
	C167.226074,389.201172 167.519043,389.386902 167.902206,389.823303 
z"/>
<path fill="#5B4460" opacity="1.000000" stroke="none" 
	d="
M166.890533,388.820557 
	C166.580658,388.941010 166.180542,388.813110 165.851105,388.359558 
	C166.214615,388.213318 166.507462,388.392731 166.890533,388.820557 
z"/>
<path fill="#FFC7AB" opacity="1.000000" stroke="none" 
	d="
M252.076630,84.804794 
	C262.738953,86.365234 272.261230,81.253845 282.376190,79.604477 
	C290.997284,78.198700 299.544922,77.743179 308.119873,79.971268 
	C317.362427,82.372841 323.580719,88.044655 327.149567,96.815903 
	C331.010529,106.305183 331.245300,116.241676 331.184326,126.284538 
	C331.158447,130.546494 332.021210,134.813858 332.623840,139.732422 
	C332.176849,142.216461 331.092987,144.041946 331.074707,145.878052 
	C330.948059,158.591751 331.043152,171.307663 331.035339,184.487869 
	C331.009216,198.477112 331.014801,212.001358 330.734314,225.735062 
	C325.765747,231.569687 320.628479,236.589706 313.322784,239.170822 
	C312.702240,237.086090 312.269440,235.312332 311.650940,233.605896 
	C307.499207,222.151260 300.749207,213.078339 288.613281,209.208664 
	C282.609161,207.294189 276.464203,205.819717 270.467163,203.885269 
	C265.657440,202.333801 261.331268,202.005371 257.991577,207.419937 
	C254.700119,201.984695 250.361420,202.319092 245.557755,203.877075 
	C241.799225,205.096069 237.897156,205.872513 234.055511,206.401886 
	C233.177490,198.232483 232.537369,190.471298 231.373672,182.789413 
	C229.587250,170.996490 228.170700,159.085281 234.087128,148.192856 
	C238.814590,139.489365 240.497833,130.624939 240.037323,120.913376 
	C239.397293,107.416672 241.778061,94.742157 252.076630,84.804794 
z"/>
<path fill="#FEAA7B" opacity="1.000000" stroke="none" 
	d="
M252.049927,84.611870 
	C241.778061,94.742157 239.397293,107.416672 240.037323,120.913376 
	C240.497833,130.624939 238.814590,139.489365 234.087128,148.192856 
	C228.170700,159.085281 229.587250,170.996490 231.373672,182.789413 
	C232.537369,190.471298 233.177490,198.232483 233.903168,206.508972 
	C233.496521,207.113251 233.304108,207.255142 233.176956,207.485443 
	C215.557312,211.224152 206.462936,223.052078 202.581451,240.112946 
	C194.514648,237.554459 188.692596,232.298157 183.298370,225.861771 
	C183.026016,212.097794 183.046967,198.519333 183.091827,184.007812 
	C183.108414,171.201340 183.190582,159.326660 183.022629,147.455505 
	C182.986511,144.903671 182.046600,142.364624 181.523026,139.819687 
	C181.981339,135.382645 182.561691,130.954025 182.868332,126.506523 
	C183.290634,120.381653 183.008118,114.169090 183.899643,108.122688 
	C187.101837,86.405029 199.068039,77.327156 221.879196,78.611534 
	C230.557602,79.100159 239.107727,81.852654 247.719559,83.556900 
	C248.852097,83.781044 250.004059,83.907104 251.558212,84.055870 
	C251.969406,84.033150 252.023224,84.418945 252.049927,84.611870 
z"/>
<path fill="#DDEDFE" opacity="1.000000" stroke="none" 
	d="
M331.067047,184.022858 
	C331.043152,171.307663 330.948059,158.591751 331.074707,145.878052 
	C331.092987,144.041946 332.176849,142.216461 332.888336,140.071991 
	C339.781189,135.497040 349.196808,136.034012 354.570679,141.341797 
	C354.831207,141.710876 355.007416,142.013184 355.007416,142.013184 
	C355.220123,153.236572 355.432678,164.459961 355.645599,175.683350 
	C355.686340,177.830978 355.728485,179.978561 355.904297,182.583130 
	C355.933899,183.476288 355.829132,183.912491 355.255981,184.735580 
	C347.109222,191.261948 336.464325,190.768494 331.067047,184.022858 
z"/>
<path fill="#806FD0" opacity="1.000000" stroke="none" 
	d="
M355.423035,141.986298 
	C355.007416,142.013184 354.831207,141.710876 354.874390,141.541870 
	C354.624756,125.272896 354.833099,109.141426 353.824249,93.086441 
	C353.332367,85.259216 350.569733,77.574684 348.894104,69.423080 
	C352.246399,76.817390 356.572784,84.359947 358.569763,92.475677 
	C361.033966,102.490311 361.560669,112.981689 362.968018,123.717102 
	C362.047058,129.790695 361.082733,135.414246 360.062988,141.488586 
	C358.617920,141.946030 357.228271,141.952713 355.423035,141.986298 
z"/>
<path fill="#806FD0" opacity="1.000000" stroke="none" 
	d="
M346.839478,65.502136 
	C347.189087,65.618599 347.592163,66.021584 347.982574,66.734833 
	C347.610931,66.626274 347.251953,66.207466 346.839478,65.502136 
z"/>
<path fill="#806FD0" opacity="1.000000" stroke="none" 
	d="
M347.918884,67.327362 
	C348.310760,67.476814 348.673340,67.942390 349.000793,68.721313 
	C348.606995,68.570938 348.248291,68.107216 347.918884,67.327362 
z"/>
<path fill="#DDEDFE" opacity="1.000000" stroke="none" 
	d="
M181.207901,139.614105 
	C182.046600,142.364624 182.986511,144.903671 183.022629,147.455505 
	C183.190582,159.326660 183.108414,171.201340 183.052795,183.540924 
	C177.506622,190.697617 166.724350,191.287003 159.220551,185.136780 
	C158.736984,184.565674 158.576584,184.146454 158.454773,183.389587 
	C158.667938,169.691696 158.842499,156.331451 159.098083,142.512985 
	C159.481766,141.974731 159.699234,141.792999 159.828659,141.294891 
	C164.584625,136.200607 173.545578,135.489563 181.207901,139.614105 
z"/>
<path fill="#57415F" opacity="1.000000" stroke="none" 
	d="
M233.133118,207.914124 
	C233.304108,207.255142 233.496521,207.113251 233.906540,206.952698 
	C237.897156,205.872513 241.799225,205.096069 245.557755,203.877075 
	C250.361420,202.319092 254.700119,201.984695 257.991577,207.419937 
	C261.331268,202.005371 265.657440,202.333801 270.467163,203.885269 
	C276.464203,205.819717 282.609161,207.294189 288.613281,209.208664 
	C300.749207,213.078339 307.499207,222.151260 311.650940,233.605896 
	C312.269440,235.312332 312.702240,237.086090 313.322784,239.170822 
	C320.628479,236.589706 325.765747,231.569687 330.977966,225.976257 
	C332.424500,227.281799 333.341309,228.555634 334.189148,230.243561 
	C330.476654,248.182434 323.730774,264.230103 311.818939,277.862366 
	C310.925781,278.884521 310.588928,280.392761 309.993469,281.675110 
	C309.648590,281.791138 309.303650,281.907166 308.245056,282.033173 
	C300.686584,282.199921 293.817841,282.061005 287.004883,282.612152 
	C282.037262,283.014069 277.143188,284.325775 272.216309,285.231903 
	C272.457855,280.168518 272.699402,275.105164 273.392151,269.629456 
	C284.520844,269.400146 295.059021,262.141693 298.191101,252.005905 
	C298.685394,250.406311 297.968811,247.748215 296.826599,246.439835 
	C290.132721,238.771942 281.469849,234.289627 271.568237,232.347626 
	C265.784393,231.213242 262.067322,227.920319 259.671265,222.759705 
	C259.234497,221.819000 258.590149,220.974670 257.908508,219.870132 
	C252.826248,229.661713 252.102081,230.214569 241.389145,233.072739 
	C240.275024,233.369995 239.222305,233.897369 237.907837,234.326508 
	C237.674561,234.335022 237.207748,234.332458 237.207748,234.332458 
	C231.824310,230.064972 228.622650,224.766708 230.074585,217.677170 
	C230.726608,214.493439 232.063293,211.449951 233.133118,207.914124 
z"/>
<path fill="#FDC6AA" opacity="1.000000" stroke="none" 
	d="
M238.141083,234.317963 
	C239.222305,233.897369 240.275024,233.369995 241.389145,233.072739 
	C252.102081,230.214569 252.826248,229.661713 257.908508,219.870132 
	C258.590149,220.974670 259.234497,221.819000 259.671265,222.759705 
	C262.067322,227.920319 265.784393,231.213242 271.568237,232.347626 
	C281.469849,234.289627 290.132721,238.771942 296.826599,246.439835 
	C297.968811,247.748215 298.685394,250.406311 298.191101,252.005905 
	C295.059021,262.141693 284.520844,269.400146 273.400818,269.222015 
	C266.785767,267.780792 262.996826,264.034058 261.275757,257.864899 
	C260.854645,256.355469 258.995880,255.247086 257.798096,253.954330 
	C256.628418,255.310089 255.254303,256.542450 254.342056,258.053650 
	C253.260666,259.844971 252.577164,261.876465 251.267502,263.651489 
	C246.589539,253.772049 242.365311,244.044998 238.141083,234.317963 
z"/>
<path fill="#FD4155" opacity="1.000000" stroke="none" 
	d="
M272.047913,285.542938 
	C277.143188,284.325775 282.037262,283.014069 287.004883,282.612152 
	C293.817841,282.061005 300.686584,282.199921 307.976868,282.084137 
	C311.318024,286.057281 313.621704,290.113403 311.099243,295.562500 
	C304.958405,302.369873 296.612518,300.578125 289.147888,301.859436 
	C286.084473,302.385315 282.871216,302.038452 279.245361,302.128967 
	C269.565643,300.027313 266.969208,293.874634 272.047913,285.542938 
z"/>
<path fill="#FDA97B" opacity="1.000000" stroke="none" 
	d="
M237.907822,234.326492 
	C242.365311,244.044998 246.589539,253.772049 250.956360,263.828461 
	C247.219803,269.469238 241.675934,270.376678 235.991913,268.776245 
	C227.718735,266.446808 221.075745,261.492340 217.275421,253.562164 
	C216.566071,252.081970 216.796280,249.231125 217.802231,248.004791 
	C222.813660,241.895370 228.977631,237.196671 236.926651,234.543610 
	C237.207748,234.332458 237.674561,234.335022 237.907822,234.326492 
z"/>
<path fill="#F94155" opacity="1.000000" stroke="none" 
	d="
M221.985870,375.499756 
	C221.054688,378.238068 220.009003,380.746460 218.936203,383.652710 
	C211.027191,376.951660 203.145294,369.852692 195.098312,362.471436 
	C198.332703,362.142944 201.732147,362.096741 205.765625,362.388428 
	C211.261475,366.491608 216.123306,370.256958 220.985138,374.022339 
	C221.280548,374.438171 221.575943,374.854004 221.985870,375.499756 
z"/>
<path fill="#49324E" opacity="1.000000" stroke="none" 
	d="
M221.259552,373.747314 
	C216.123306,370.256958 211.261475,366.491608 206.223145,362.456421 
	C212.049194,362.134644 218.051727,362.082733 224.518524,362.085876 
	C223.833191,365.918030 222.683578,369.695160 221.259552,373.747314 
z"/>
<path fill="#7F6ED1" opacity="1.000000" stroke="none" 
	d="
M310.376801,281.818298 
	C310.588928,280.392761 310.925781,278.884521 311.818939,277.862366 
	C323.730774,264.230103 330.476654,248.182434 334.579895,230.345428 
	C344.587463,233.091049 351.740051,231.379166 355.345825,225.173157 
	C358.262787,225.204102 361.179779,225.235062 364.556030,225.367752 
	C364.992920,231.760284 365.041382,238.052322 364.932037,244.341614 
	C364.753082,254.635269 360.340820,262.538086 351.101318,267.295563 
	C345.082794,270.394531 338.826447,273.031616 332.357056,276.054260 
	C324.945007,278.142456 317.852570,280.052002 310.376801,281.818298 
z"/>
<path fill="#D4D6F6" opacity="1.000000" stroke="none" 
	d="
M355.384735,224.692886 
	C351.740051,231.379166 344.587463,233.091049 334.648865,229.931320 
	C333.341309,228.555634 332.424500,227.281799 331.264038,225.766785 
	C331.014801,212.001358 331.009216,198.477112 331.035339,184.487869 
	C336.464325,190.768494 347.109222,191.261948 355.098694,185.033539 
	C355.414398,198.033966 355.419037,211.123291 355.384735,224.692886 
z"/>
<path fill="#36273C" opacity="1.000000" stroke="none" 
	d="
M347.116455,388.884827 
	C343.052551,393.062378 340.398987,397.544067 340.065857,403.619080 
	C326.826416,404.004822 313.677521,404.036224 300.528748,404.010315 
	C295.143158,403.999725 292.121338,401.230133 292.068695,395.861176 
	C291.916229,380.314819 290.655579,377.181030 308.804749,377.927246 
	C317.943604,378.302979 327.110687,377.991547 336.264984,377.993225 
	C344.741180,377.994751 346.716705,379.909973 347.116455,388.884827 
M328.578522,391.404785 
	C329.084167,395.031036 331.182007,397.566833 334.783112,396.850891 
	C336.878479,396.434326 339.699188,394.170990 340.103851,392.289276 
	C340.509521,390.402893 338.874359,387.219147 337.145050,385.915649 
	C333.824005,383.412445 330.296234,385.630920 328.578522,391.404785 
M311.841034,389.823425 
	C311.322510,393.225952 312.594666,396.173553 315.878387,396.650818 
	C318.013824,396.961243 321.201355,395.801575 322.592560,394.170441 
	C324.930023,391.429810 324.008911,388.069092 320.901855,386.133881 
	C317.047516,383.733307 314.026978,385.142426 311.841034,389.823425 
M305.058319,393.843597 
	C305.449219,392.342773 306.098053,390.835083 306.058167,389.345795 
	C306.047607,388.950287 303.837463,388.183563 302.795044,388.388763 
	C302.031281,388.539124 300.814331,390.456573 301.031616,390.794800 
	C301.839172,392.051727 303.156311,392.981262 305.058319,393.843597 
z"/>
<path fill="#CED6F4" opacity="1.000000" stroke="none" 
	d="
M328.579895,391.040161 
	C330.296234,385.630920 333.824005,383.412445 337.145050,385.915649 
	C338.874359,387.219147 340.509521,390.402893 340.103851,392.289276 
	C339.699188,394.170990 336.878479,396.434326 334.783112,396.850891 
	C331.182007,397.566833 329.084167,395.031036 328.579895,391.040161 
z"/>
<path fill="#CDD5F3" opacity="1.000000" stroke="none" 
	d="
M311.925415,389.425415 
	C314.026978,385.142426 317.047516,383.733307 320.901855,386.133881 
	C324.008911,388.069092 324.930023,391.429810 322.592560,394.170441 
	C321.201355,395.801575 318.013824,396.961243 315.878387,396.650818 
	C312.594666,396.173553 311.322510,393.225952 311.925415,389.425415 
z"/>
<path fill="#EECE3F" opacity="1.000000" stroke="none" 
	d="
M304.670227,393.938660 
	C303.156311,392.981262 301.839172,392.051727 301.031616,390.794800 
	C300.814331,390.456573 302.031281,388.539124 302.795044,388.388763 
	C303.837463,388.183563 306.047607,388.950287 306.058167,389.345795 
	C306.098053,390.835083 305.449219,392.342773 304.670227,393.938660 
z"/>
</svg>